<?xml version="1.0" encoding="utf-8"?>
<svg xmlns="http://www.w3.org/2000/svg">
<symbol id="pencil-2" viewBox="0 0 24 24">
<g id="Frames-24px">
	<rect fill="none" width="24" height="24"/>
</g>
<g id="Outline">
	<path d="M20.821,3.18c-0.761-0.76-1.771-1.178-2.847-1.178c-1.074,0-2.086,0.418-2.846,1.179L3.72,14.59
		c-0.128,0.128-0.22,0.289-0.263,0.464l-1.427,5.705c-0.084,0.34,0.016,0.702,0.264,0.948c0.247,0.249,0.608,0.349,0.949,0.264
		l5.705-1.427c0.175-0.043,0.336-0.135,0.464-0.263L20.82,8.872c0.76-0.76,1.178-1.772,1.179-2.846c0-1.076-0.418-2.087-1.179-2.847
		L20.821,3.18z M9.077,16.338l7.471-7.471l0.727,0.725l-7.955,7.955L9.077,16.338z M7.663,14.923l-1.209-0.241l7.956-7.955
		l0.725,0.726L7.663,14.923z M5.166,16.464l1.976,0.395l0.396,1.977l-3.163,0.791L5.166,16.464z M15.823,5.313l0.72-0.718
		c0.766-0.764,2.1-0.764,2.864,0l-0.002-0.001c0.765,0.765,0.765,2.099,0,2.864l-0.718,0.72L15.823,5.313z"/>
</g>

</symbol>
<symbol id="tram" viewBox="0 0 24 24">
<g id="Frames-24px">
	<rect fill="none" width="24" height="24"/>
</g>
<g id="Outline">
	<g>
		<polygon points="18.001,8.002 13.235,8.002 11.902,6.002 13.235,4.002 15.001,4.002 15.001,2.002 9.001,2.002
			9.001,4.002 11.433,4.002 10.1,6.002 11.433,8.002 6.001,8.002 6.001,10.002 18.001,10.002 		"/>
		<path d="M21.001,18.002v-6c0-0.552-0.448-1-1-1h-17c-0.552,0-1,0.448-1,1v6c0,0.553,0.448,1,1,1h1.185
			c-0.112,0.314-0.185,0.647-0.185,1c0,0.771,0.301,1.468,0.78,2h-2.78v2h19v-2h-2.78c0.479-0.532,0.78-1.229,0.78-2
			c0-0.353-0.072-0.686-0.185-1h1.185C20.553,19.002,21.001,18.555,21.001,18.002z M8.001,20.002c0,0.551-0.449,1-1,1s-1-0.449-1-1
			c0-0.551,0.449-1,1-1S8.001,19.451,8.001,20.002z M9.221,22.002c0.479-0.532,0.78-1.229,0.78-2c0-0.353-0.072-0.686-0.185-1h3.369
			c-0.112,0.314-0.185,0.647-0.185,1c0,0.771,0.301,1.468,0.78,2H9.221z M17.001,20.002c0,0.551-0.449,1-1,1s-1-0.449-1-1
			c0-0.551,0.449-1,1-1S17.001,19.451,17.001,20.002z M19.001,17.002h-15v-4h15V17.002z"/>
		<rect x="7.001" y="14.002" width="3" height="2"/>
		<rect x="13.001" y="14.002" width="3" height="2"/>
	</g>
</g>

</symbol></svg>
